PathFileType	4	(X/Y/Z)	E:\Qualisys_Data\Carbon_Farble_Plate\Data\Amateur_Runner\S1\T2\S1T2V21_c3d.trc
DataRate	CameraRate	NumFrames	NumMarkers	Units	OrigDataRate	OrigDataStartFrame	OrigNumFrames
200.000000	200.000000	4	39	mm	200.000000	142	284
Frame#	Time	LSHO			RSHO			LICST			RICST			LASIS			LHEEL			RASIS			LTROC			RTROC			SACR			LTH1			LSK4			LTH2			LTH3			RHM5			LSK2			LTH4			RTH1			LTOE			RTH2			RTH3			RTH4			LLEP			RLEP			LSK1			LSK3			RSK1			LHM5			RSK2			LFT1			RSK3			RSK4			LLME			RLME			RTOE			RHEEL			RFT1			RFT2			LFT2			
		X1	Y1	Z1	X2	Y2	Z2	X3	Y3	Z3	X4	Y4	Z4	X5	Y5	Z5	X6	Y6	Z6	X7	Y7	Z7	X8	Y8	Z8	X9	Y9	Z9	X10	Y10	Z10	X11	Y11	Z11	X12	Y12	Z12	X13	Y13	Z13	X14	Y14	Z14	X15	Y15	Z15	X16	Y16	Z16	X17	Y17	Z17	X18	Y18	Z18	X19	Y19	Z19	X20	Y20	Z20	X21	Y21	Z21	X22	Y22	Z22	X23	Y23	Z23	X24	Y24	Z24	X25	Y25	Z25	X26	Y26	Z26	X27	Y27	Z27	X28	Y28	Z28	X29	Y29	Z29	X30	Y30	Z30	X31	Y31	Z31	X32	Y32	Z32	X33	Y33	Z33	X34	Y34	Z34	X35	Y35	Z35	X36	Y36	Z36	X37	Y37	Z37	X38	Y38	Z38	X39	Y39	Z39	

143	0.71	374.7663269042969	1506.601318359375	-527.3634033203125	291.5075073242188	1480.987915039062	-217.9177551269531	317.3744201660156	1022.627380371094	-533.5427856445312	295.3650512695312	1051.27734375	-237.9067535400391	360.2528076171875	985.1492309570312	-505.3203125	-170.9921569824219	487.1327514648438	-430.5212097167969	341.0914916992188	1005.762329101562	-242.3757476806641	248.7542724609375	902.6450805664062	-555.2273559570312	239.5044555664062	907.3267822265624	-216.0291900634766	189.2297821044922	1048.231689453125	-389.49169921875	363.5783081054688	741.1000366210938	-517.9871215820312	-28.9489917755127	499.9439392089844	-465.6125183105469	285.7998046875	739.2635498046875	-549.0084838867188	358.4151306152344	637.1340942382812	-505.7576599121094	595.888916015625	76.31272888183594	-236.3914489746094	65.94944763183594	510.2947387695312	-504.8930358886719	275.3344421386719	640.65771484375	-527.2550048828125	402.5081176757812	814.9446411132812	-221.0300445556641	-161.3663177490234	233.645751953125	-416.2467651367188	328.6628723144531	784.3629760742188	-203.0437622070312	437.6459350585938	719.4778442382812	-229.2301940917969	362.106201171875	691.24072265625	-220.2325439453125	277.9471435546875	491.6583862304688	-497.124755859375	446.9978332519531	544.2015380859375	-257.2130126953125	75.42559051513672	426.9705505371094	-492.78369140625	-25.91129493713379	422.6455383300781	-486.3955688476562	463.1592102050781	351.3941955566406	-236.2760314941406	-204.4556884765625	291.6332092285156	-484.1086730957031	382.2541198730469	344.6813659667969	-245.3463287353516	-197.2448577880859	477.9784545898438	-404.5935668945312	474.1706237792969	252.4558410644531	-249.4804229736328	395.90283203125	245.9317932128906	-269.5259094238281	-143.5510101318359	434.6006774902344	-480.614501953125	459.8598327636719	117.0671691894531	-249.519287109375	652.1134643554688	112.773193359375	-309.0841369628906	403.3150024414062	78.96762084960938	-294.19873046875	419.9320373535156	50.08671951293945	-325.5810546875	412.5172729492188	47.06720733642578	-270.3011779785156	-203.9219055175781	477.4971618652344	-456.2104187011719
144	0.715	394.828125	1502.303588867188	-526.7999267578125	313.5879516601562	1475.280639648438	-216.3100433349609	336.7887268066406	1018.140563964844	-533.4655151367188	315.5739440917969	1048.125610351562	-238.0953063964844	379.9519348144531	980.5635986328124	-504.9184875488281	-139.3694915771484	491.7587280273438	-430.2471923828125	360.4962158203125	1001.870422363281	-241.7151947021484	269.2416076660156	897.6809692382812	-554.754638671875	258.5440368652344	903.8109130859376	-215.9928741455078	208.8633575439453	1043.780151367188	-389.3064575195312	388.3466796875	738.8179321289062	-518.4275512695312	3.349487066268921	501.7237548828125	-465.3197021484375	309.5359191894531	735.0875244140625	-549.4850463867188	385.6445617675781	634.248046875	-506.7779846191406	600.7911376953125	63.64380264282227	-237.5047454833984	98.9019775390625	510.5011901855469	-504.708740234375	301.9117736816406	635.9154052734375	-527.6062622070312	420.2315368652344	810.5037231445312	-220.9182281494141	-132.3512573242188	237.9018859863281	-417.3713989257812	347.6619262695312	780.3946533203125	-202.8605194091797	456.6068115234375	715.8883056640625	-229.5833587646484	380.9131774902344	687.5252685546875	-220.4880676269531	309.0663757324219	487.8361511230469	-497.896240234375	462.9638366699219	538.6312255859375	-256.5954895019531	106.1821746826172	426.8633117675781	-493.2510986328125	4.743894577026367	424.4635314941406	-486.4586181640625	475.5127868652344	345.64208984375	-237.145751953125	-174.6073150634766	296.852783203125	-484.719970703125	394.5438842773438	340.0431213378906	-245.7385406494141	-165.5520935058594	482.6556396484375	-404.0811462402344	484.5415344238281	246.1296844482422	-249.9566497802734	405.7935180664062	241.9888153076172	-269.7966003417969	-112.2458343505859	439.0820922851562	-480.5653076171875	467.44140625	112.1530685424805	-250.1724090576172	659.0697021484375	96.39169311523438	-310.0307922363281	408.2492980957031	77.76580047607422	-293.9807434082031	423.8809814453125	48.03917694091797	-325.6321411132812	415.6978149414062	46.76749801635742	-270.1537170410156	-172.2049102783203	482.1075439453125	-455.2553100585938
145	0.72	414.7938537597656	1498.255737304688	-526.0740966796875	335.8072509765625	1469.335815429688	-214.7061004638672	356.337158203125	1013.657836914062	-533.0327758789062	334.9043884277344	1043.617797851562	-236.4552459716797	399.6785278320312	976.3145751953124	-504.8219299316406	-107.2499160766602	495.6131896972656	-430.0050964355469	380.5455932617188	998.4702758789062	-241.3093109130859	289.9628295898438	892.5956420898438	-553.9038696289062	277.8443298339844	900.000732421875	-215.6410827636719	227.9209136962891	1039.064208984375	-389.0303955078125	412.7296752929688	736.1716918945312	-519.0609741210938	36.42125701904297	503.2218322753906	-465.0140380859375	334.13623046875	729.8150634765625	-548.328857421875	413.0820007324219	631.7765502929688	-507.8470153808594	606.9257202148438	56.06316757202148	-237.2000427246094	131.687744140625	510.25244140625	-504.2555236816406	328.70263671875	631.0946655273438	-527.564697265625	438.9716491699219	806.017822265625	-221.029541015625	-102.1862564086914	241.2781982421875	-418.4028015136719	366.5855407714844	776.1378784179688	-202.1114959716797	475.2699890136719	711.50048828125	-230.1603088378906	399.6637268066406	682.9668579101562	-220.2278442382812	340.5399780273438	484.1035766601562	-498.7707824707031	478.9725341796875	532.4482421875	-256.2328491210938	137.4764251708984	426.5523681640625	-493.4850158691406	36.62097549438477	425.8855285644531	-486.5389404296875	487.9472961425781	339.73486328125	-238.1222839355469	-143.6530609130859	301.8785095214844	-485.5828552246094	406.6756286621094	336.7202758789062	-246.2378997802734	-133.5501098632812	486.489990234375	-403.9167175292969	494.3116455078125	240.0726470947266	-250.7833557128906	414.9720764160156	238.3619232177734	-268.0334777832031	-80.8378677368164	442.8478088378906	-480.3937377929688	474.3407897949219	108.0960388183594	-250.3449096679688	666.0599365234375	79.86079406738281	-312.5429382324219	412.8272705078125	76.28385925292969	-293.0843200683594	426.2398681640625	47.19754791259766	-325.2219848632812	418.7101135253906	45.61744689941406	-270.173583984375	-140.2109985351562	486.6238708496094	-455.1114501953125
146	0.725	434.7674255371094	1494.358276367188	-525.6671142578125	357.7611999511719	1463.8935546875	-213.3076782226562	376.0356750488281	1008.826171875	-532.7930297851562	354.4566650390625	1039.198486328125	-235.8798522949219	419.3908996582031	971.9047241210938	-504.0511779785156	-74.83282470703125	498.9979248046875	-429.7043151855469	403.697021484375	994.6890258789062	-242.7884216308594	310.1826171875	887.1422729492188	-552.6260986328125	297.228271484375	895.5713500976562	-215.3299407958984	247.7520904541016	1034.743896484375	-388.9903259277344	437.4185180664062	733.5042114257812	-519.88525390625	69.75726318359375	504.5216674804688	-464.9752807617188	358.4591979980469	725.3679809570312	-548.5523071289062	440.4027099609375	629.5199584960938	-509.1126708984375	612.9094848632812	57.78450775146484	-239.4576110839844	165.1948089599609	510.4567565917969	-504.4116516113281	356.3305053710938	626.6150512695312	-527.8912963867188	457.4711608886719	800.6771240234375	-220.9714508056641	-70.8206787109375	244.5997619628906	-419.7859497070312	385.4033813476562	771.8033447265625	-200.8730773925781	493.1482543945312	705.8506469726562	-230.6369934082031	417.65380859375	678.509521484375	-218.7739105224609	372.4949035644531	480.520751953125	-499.3816528320312	495.1187438964844	526.23876953125	-255.2080688476562	169.2034759521484	425.9563598632812	-494.1494140625	68.16854095458984	427.0261535644531	-487.2013549804688	500.7851257324219	334.3849487304688	-238.3485412597656	-112.3618621826172	305.0943908691406	-486.1781005859375	419.2621154785156	334.0087280273438	-247.0957946777344	-101.3116073608398	489.7113647460938	-402.8581237792969	503.8667602539062	234.6437683105469	-251.3492584228516	426.1723327636719	236.7099456787109	-270.1530456542969	-48.58526992797852	446.1604309082031	-480.3803100585938	480.2442932128906	104.0807876586914	-250.9952239990234	669.5316772460938	73.83786010742188	-317.5435485839844	415.9223022460938	76.31604766845703	-292.6602783203125	428.0173034667969	47.22526550292969	-325.3790893554688	420.4359130859375	44.92388153076172	-269.4358520507812	-107.5426254272461	490.5645446777344	-455.4375610351562
